<svg width="62" height="62" xmlns="http://www.w3.org/2000/svg"><path fill="none" d="M-1-1h427.197v427.197H-1z"/><path d="M16.141 48.617c.06.294.16.319.203.33.287.07.532.03.795-.134 1.687-1.046 2.782-5.866 3.328-8.34-3.81 4.337-4.524 7.16-4.326 8.144zM30.802 33.351c-1.89 5.996-2.248 8.439-2.269 9.412 1.088-1.145 2.853-4.972 2.773-8.499a7.293 7.293 0 0 0-.235-1.758l-.27.845z" fill="#682f75"/><path d="M47.358 35.088c-.587-.65-.852-1.574-.921-2.59-1.435 1.813-3.38 3.348-5.848 3.348-1.753 0-2.575-.8-2.955-1.472-.842-1.486-.28-3.742.464-5.579-1.552.678-3.6 1.34-5.818 1.448.33.53.586 1.133.763 1.806 1.1 4.192-1.144 10.214-3.193 12.228-.897.88-1.66.904-2.142.768a1.494 1.494 0 0 1-.922-.779c-.495-.968-.52-3.26 2.063-11.445-2.185 1.687-4.012 3.26-5.535 4.708-.159.565-.31 1.1-.451 1.59-.102.355-.231.94-.381 1.62-.923 4.186-2.013 8.39-4.276 9.794a3.023 3.023 0 0 1-1.607.47c-.246 0-.494-.03-.743-.092-.882-.22-1.501-.91-1.7-1.894-.472-2.343 1.373-6.755 7.355-12.56.312-1.122.645-2.336.967-3.523-1.44 1.615-3.247 2.912-5.337 2.912-1.574 0-2.326-.738-2.68-1.358-.94-1.647-.048-4.39.848-6.37-3.894 1.256-11.627 3.74-15.249 4.83C1.066 49.16 14.534 62 31.003 62c16.623 0 30.19-13.08 30.969-29.509a122.712 122.712 0 0 1-11.167 3.354c-1.864.466-2.903-.155-3.447-.757z" fill="#682f75"/><path d="M18.126 25.767c.263.328.296.784.082 1.147-1.176 1.995-2.622 5.464-1.989 6.571.048.084.193.337.923.337 3.363 0 6.334-5.627 7.196-7.796a1.012 1.012 0 0 1 1.92.632c-.014.054-.95 3.592-1.944 7.245a83.937 83.937 0 0 1 4.518-3.61c.1-.074.2-.153.304-.237a3.928 3.928 0 0 0-.705-.255 1.012 1.012 0 0 1 .553-1.947 8.834 8.834 0 0 0 1.405.299c.773-2.26 1.69-4.843 2.77-7.794l.345-.945c1.685-4.66 3.425-7.298 5.17-7.84.747-.23 1.49-.104 2.147.368.338.242.741.729.75 1.675.027 2.805-3.829 9.658-7.684 14.394 3.308-.635 5.918-2.416 5.956-2.443a1.013 1.013 0 0 1 1.445 1.352c-1.15 1.922-2.547 5.303-1.892 6.457.062.11.252.445 1.193.445 3.46 0 5.975-4.92 6.846-7.302.065-.195.12-.352.16-.464a1.013 1.013 0 0 1 1.916.655c-.013.039-.054.165-.125.36-.753 2.246-1.397 5.697-.526 6.66.251.278.74.329 1.455.15 4.005-.998 8.096-2.243 11.685-3.55C61.644 13.519 47.903 0 31.003 0 13.93 0 .08 13.8 0 30.852c5.208-1.586 16.898-5.374 17.024-5.415.4-.13.839.001 1.102.33z" fill="#682f75"/><path d="M39.545 13.527a.336.336 0 0 0-.154-.04.383.383 0 0 0-.117.02c-.77.239-2.244 2.11-3.866 6.595l-.348.953c-.36.98-.876 2.39-1.464 4.04a53.189 53.189 0 0 0 2.61-3.881c2.784-4.553 3.44-7.062 3.34-7.687z" fill="#682f75"/><path stroke-miterlimit="10" stroke-linejoin="round" stroke-linecap="round" stroke-width=".5" stroke="#ed1f89" fill="none" d="M251.65-285.292L162.902-19.57"/><path stroke-linejoin="round" stroke-linecap="round" stroke-width=".5" stroke="#ed1f89" fill="none" d="M59.61-134.199h1"/><path stroke-dasharray="2.0131, 2.0131" stroke-linejoin="round" stroke-linecap="round" stroke-width=".5" stroke="#ed1f89" fill="none" d="M62.624-134.199h300.957"/><path stroke-linejoin="round" stroke-linecap="round" stroke-width=".5" stroke="#ed1f89" fill="none" d="M364.587-134.199h1M59.61-169.65h1"/><path stroke-dasharray="2.0131, 2.0131" stroke-linejoin="round" stroke-linecap="round" stroke-width=".5" stroke="#ed1f89" fill="none" d="M62.624-169.65h300.957"/><path stroke-linejoin="round" stroke-linecap="round" stroke-width=".5" stroke="#ed1f89" fill="none" d="M364.587-169.65h1M59.61-217.811h1"/><path stroke-dasharray="2.0131, 2.0131" stroke-linejoin="round" stroke-linecap="round" stroke-width=".5" stroke="#ed1f89" fill="none" d="M62.624-217.811h300.957"/><path stroke-linejoin="round" stroke-linecap="round" stroke-width=".5" stroke="#ed1f89" fill="none" d="M364.587-217.811h1M59.61-102.092h1"/><path stroke-dasharray="2.0131, 2.0131" stroke-linejoin="round" stroke-linecap="round" stroke-width=".5" stroke="#ed1f89" fill="none" d="M62.624-102.092h300.957"/><path stroke-linejoin="round" stroke-linecap="round" stroke-width=".5" stroke="#ed1f89" fill="none" d="M364.587-102.092h1M59.61-82.025h1"/><path stroke-dasharray="2.0131, 2.0131" stroke-linejoin="round" stroke-linecap="round" stroke-width=".5" stroke="#ed1f89" fill="none" d="M62.624-82.025h300.957"/><path stroke-linejoin="round" stroke-linecap="round" stroke-width=".5" stroke="#ed1f89" fill="none" d="M364.587-82.025h1"/></svg>